<svg width="396" height="99" viewBox="0 0 396 99" fill="none" xmlns="http://www.w3.org/2000/svg">
<rect width="137" height="99" rx="20" fill="#FE024E"/>
<path d="M51 31.3658C51 23.444 59.7725 18.6674 66.4265 22.9662L93.1667 40.2416C99.2215 44.1533 99.2741 52.992 93.2662 56.9755L66.5261 74.7055C59.8789 79.1129 51 74.3467 51 66.3711V31.3658Z" fill="white"/>
<path d="M170.875 26.5L184 61.375L197.094 26.5H207.312V72H199.438V57L200.219 36.9375L186.781 72H181.125L167.719 36.9688L168.5 57V72H160.625V26.5H170.875ZM224.031 72H216.438V38.1875H224.031V72ZM215.969 29.4062C215.969 28.2396 216.333 27.2708 217.062 26.5C217.812 25.7292 218.875 25.3438 220.25 25.3438C221.625 25.3438 222.688 25.7292 223.438 26.5C224.188 27.2708 224.562 28.2396 224.562 29.4062C224.562 30.5521 224.188 31.5104 223.438 32.2812C222.688 33.0312 221.625 33.4062 220.25 33.4062C218.875 33.4062 217.812 33.0312 217.062 32.2812C216.333 31.5104 215.969 30.5521 215.969 29.4062ZM240.406 72H232.812V24H240.406V72ZM268.906 72C268.573 71.3542 268.281 70.3021 268.031 68.8438C265.615 71.3646 262.656 72.625 259.156 72.625C255.76 72.625 252.99 71.6562 250.844 69.7188C248.698 67.7812 247.625 65.3854 247.625 62.5312C247.625 58.9271 248.958 56.1667 251.625 54.25C254.312 52.3125 258.146 51.3438 263.125 51.3438H267.781V49.125C267.781 47.375 267.292 45.9792 266.312 44.9375C265.333 43.875 263.844 43.3438 261.844 43.3438C260.115 43.3438 258.698 43.7812 257.594 44.6562C256.49 45.5104 255.938 46.6042 255.938 47.9375H248.344C248.344 46.0833 248.958 44.3542 250.188 42.75C251.417 41.125 253.083 39.8542 255.188 38.9375C257.312 38.0208 259.677 37.5625 262.281 37.5625C266.24 37.5625 269.396 38.5625 271.75 40.5625C274.104 42.5417 275.312 45.3333 275.375 48.9375V64.1875C275.375 67.2292 275.802 69.6562 276.656 71.4688V72H268.906ZM260.562 66.5312C262.062 66.5312 263.469 66.1667 264.781 65.4375C266.115 64.7083 267.115 63.7292 267.781 62.5V56.125H263.688C260.875 56.125 258.76 56.6146 257.344 57.5938C255.927 58.5729 255.219 59.9583 255.219 61.75C255.219 63.2083 255.698 64.375 256.656 65.25C257.635 66.1042 258.938 66.5312 260.562 66.5312ZM290.375 38.1875L290.594 42.0938C293.094 39.0729 296.375 37.5625 300.438 37.5625C307.479 37.5625 311.062 41.5938 311.188 49.6562V72H303.594V50.0938C303.594 47.9479 303.125 46.3646 302.188 45.3438C301.271 44.3021 299.76 43.7812 297.656 43.7812C294.594 43.7812 292.312 45.1667 290.812 47.9375V72H283.219V38.1875H290.375ZM352.562 32.875H338.375V72H330.531V32.875H316.469V26.5H352.562V32.875ZM375.094 62.0938L386.656 26.5H395.344L378.969 72H371.312L355 26.5H363.656L375.094 62.0938Z" fill="black"/>
</svg>
